<?xml version="1.0" standalone="no"?>
<!DOCTYPE svg PUBLIC "-//W3C//DTD SVG 20010904//EN"
 "http://www.w3.org/TR/2001/REC-SVG-20010904/DTD/svg10.dtd">
<svg version="1.0" xmlns="http://www.w3.org/2000/svg"
 width="260.000000pt" height="260.000000pt" viewBox="0 0 260.000000 260.000000"
 preserveAspectRatio="xMidYMid meet">
<metadata>
Created by potrace 1.14, written by Peter Selinger 2001-2017
</metadata>
<g transform="translate(0.000000,260.000000) scale(0.100000,-0.100000)"
fill="#000000" stroke="none">
<path d="M980 2451 c0 -6 8 -9 18 -9 9 1 28 -2 42 -6 24 -7 24 -6 6 8 -22 17
-66 22 -66 7z"/>
<path d="M963 2400 c3 -23 1 -38 -4 -34 -5 3 -9 3 -9 0 0 -3 14 -12 30 -21 17
-9 30 -20 30 -26 0 -8 -4 -8 -14 0 -12 10 -17 8 -25 -7 -6 -11 -19 -19 -28
-17 -10 1 -23 -1 -28 -6 -12 -9 -39 -7 -42 4 -6 16 -2 23 20 32 25 11 35 52
16 69 -9 8 -10 8 -5 -1 4 -7 2 -13 -3 -13 -6 0 -11 -7 -11 -17 0 -9 -3 -13 -6
-10 -4 4 -15 -3 -25 -15 -23 -25 -25 -74 -4 -94 8 -9 15 -22 15 -30 0 -12 -6
-11 -30 6 -36 26 -90 36 -117 22 -14 -8 -27 -7 -48 4 -23 12 -26 12 -16 0 9
-11 7 -20 -13 -41 l-25 -27 -7 27 c-5 19 -1 30 12 41 18 14 17 15 -10 9 -25
-5 -28 -4 -22 12 6 14 5 15 -5 6 -9 -10 -10 -15 0 -27 8 -10 9 -16 1 -21 -5
-3 -10 -3 -10 2 0 4 -5 1 -10 -7 -9 -13 -11 -13 -20 0 -15 23 -12 51 7 73 14
16 15 19 3 15 -24 -7 -36 -53 -21 -80 6 -13 19 -35 27 -51 14 -24 14 -29 0
-43 -27 -27 -20 -79 14 -107 32 -28 39 -43 15 -33 -17 6 -21 -9 -5 -19 6 -3
10 -12 10 -19 0 -16 -70 -27 -70 -11 -1 5 -7 -1 -15 -15 -19 -33 -19 -69 1
-92 15 -15 15 -18 1 -23 -9 -4 -13 -14 -10 -26 4 -13 0 -19 -13 -19 -9 0 -15
-3 -12 -6 3 -3 -5 -32 -18 -64 -13 -33 -24 -70 -24 -83 0 -37 29 -113 51 -133
10 -9 19 -26 19 -36 0 -15 6 -19 29 -16 16 1 36 -4 45 -11 14 -11 17 -10 25
10 5 14 4 35 -2 53 -23 67 16 230 83 350 32 56 93 107 186 154 37 19 41 19 52
4 11 -15 12 -14 8 6 -5 25 11 31 20 7 4 -8 10 -13 14 -10 4 3 11 -2 14 -11 4
-11 14 -15 31 -12 13 3 26 1 27 -4 7 -19 37 5 43 34 4 16 14 32 23 36 10 3 22
13 29 21 10 12 12 13 13 2 0 -10 3 -11 13 -2 8 6 16 9 18 7 8 -8 94 -19 159
-20 56 -1 74 -6 133 -40 82 -46 103 -67 111 -111 4 -18 20 -50 36 -70 36 -46
37 -53 5 -61 -13 -3 -27 -15 -30 -25 -7 -20 10 -50 25 -46 4 1 8 -1 9 -5 3
-22 0 -27 -13 -22 -12 5 -12 -2 1 -43 8 -26 15 -54 16 -60 0 -9 4 -10 13 -2 7
6 10 18 7 27 -4 15 -3 15 6 2 6 -8 10 -35 9 -59 l-2 -43 59 -24 c104 -42 130
-83 34 -53 -87 27 -89 26 -77 -18 5 -21 14 -42 19 -48 5 -5 9 -18 9 -30 0 -12
5 -26 11 -32 6 -6 12 -35 14 -64 2 -30 4 -55 4 -56 1 -2 10 6 21 17 28 28 38
25 48 -12 7 -29 13 -33 40 -33 38 0 42 21 13 77 -14 29 -15 38 -5 42 7 3 10
13 7 25 -3 11 2 27 10 36 14 13 18 12 41 -15 16 -19 30 -28 40 -24 24 9 19 52
-9 80 -26 26 -44 24 -79 -12 -15 -14 -17 -14 -23 2 -8 20 19 43 61 51 27 6 28
7 11 19 -17 13 -17 16 -2 51 16 35 17 119 2 143 -8 12 31 75 44 73 14 -4 15
14 1 22 -13 8 -13 75 0 75 6 0 13 -14 17 -30 3 -17 10 -33 14 -36 5 -3 7 -10
4 -15 -9 -13 2 -11 34 6 34 17 61 76 32 68 -10 -2 -23 2 -29 10 -15 17 -6 47
14 47 8 0 14 7 14 15 0 8 -4 15 -10 15 -5 0 -10 12 -10 26 0 22 3 24 14 15 8
-7 17 -23 21 -38 3 -14 8 -23 11 -20 3 3 -3 25 -14 49 -13 31 -16 51 -11 67
10 26 -3 56 -29 69 -22 12 -105 6 -132 -8 -17 -9 -26 -7 -51 11 -17 12 -44 22
-61 21 -25 -1 -28 2 -23 21 5 20 5 20 -8 -2 -8 -13 -17 -19 -20 -14 -3 5 9 24
28 41 57 54 57 144 1 158 -46 11 -61 2 -64 -41 -2 -25 3 -48 13 -60 15 -19 15
-19 9 7 -9 40 3 81 22 74 9 -3 12 -1 9 4 -9 14 9 12 23 -2 18 -18 14 -42 -12
-73 -13 -15 -22 -33 -20 -40 3 -6 -3 -18 -12 -26 -12 -9 -15 -10 -10 -1 4 6 3
12 -2 12 -5 0 -12 9 -15 19 -7 26 -70 55 -94 43 -22 -11 -77 6 -81 26 -1 7 3
12 10 11 41 -7 67 49 32 69 -8 5 -16 15 -17 23 -3 21 -44 72 -50 62 -5 -9 -3
-23 7 -63 6 -23 1 -28 -54 -58 -46 -24 -66 -30 -79 -22 -10 5 -21 7 -25 5 -3
-3 -4 -2 -2 1 6 8 -23 75 -46 104 -37 48 -99 67 -119 37 -7 -10 -69 -17 -66
-7 1 3 -10 21 -25 39 -22 26 -31 30 -45 22 -10 -6 -12 -11 -5 -11 6 0 12 -4
12 -10 0 -17 -39 -5 -60 18 -32 34 -43 28 -37 -18z m41 -16 c20 -8 21 -24 2
-24 -8 0 -16 7 -20 15 -6 17 -4 18 18 9z m-254 -184 c-6 -11 -16 -18 -21 -14
-6 3 -3 12 8 20 24 18 26 17 13 -6z m1030 -49 c0 -5 -7 -12 -16 -15 -14 -5
-15 -4 -4 9 14 17 20 19 20 6z m-1127 -45 c10 -12 16 -29 13 -40 -3 -11 0 -26
6 -33 8 -10 5 -13 -15 -13 -32 0 -79 17 -89 33 -12 18 -9 62 4 75 15 15 58 4
81 -22z m57 -2 c0 -20 -7 -17 -20 6 -9 16 -8 18 5 14 8 -4 15 -12 15 -20z
m1325 -153 c-8 -48 -16 -51 -45 -14 -23 30 -14 41 21 23 16 -9 20 -9 14 0 -4
6 -19 16 -33 22 l-27 11 30 7 c40 9 48 -1 40 -49z m-197 40 c9 -5 2 -10 -23
-14 -37 -6 -65 -1 -65 12 0 10 73 12 88 2z m-1254 -70 c9 -14 -27 -39 -46 -32
-19 7 -12 24 12 34 22 8 28 8 34 -2z m-34 -51 c13 -8 13 -10 -2 -10 -9 0 -20
5 -23 10 -8 13 5 13 25 0z m40 0 c0 -5 -4 -10 -10 -10 -5 0 -10 5 -10 10 0 6
5 10 10 10 6 0 10 -4 10 -10z m1439 -109 c21 -16 22 -19 6 -34 -23 -24 -32
-21 -39 11 -3 15 -8 38 -12 52 -6 23 -6 24 8 6 8 -10 25 -26 37 -35z m-1504
-93 c-6 -30 -38 -67 -57 -68 -15 0 -8 33 13 66 28 45 53 46 44 2z m-30 -128
c-3 -5 -1 -10 4 -10 6 0 11 -9 11 -20 0 -27 -14 -25 -28 4 -8 19 -8 26 1 30
18 7 19 7 12 -4z m1332 -282 c-8 -24 -12 -28 -15 -15 -2 10 2 24 8 32 19 22
20 18 7 -17z"/>
<path d="M605 2100 c3 -5 11 -10 16 -10 6 0 7 5 4 10 -3 6 -11 10 -16 10 -6 0
-7 -4 -4 -10z"/>
<path d="M630 2071 c0 -5 -3 -17 -6 -25 -5 -12 -2 -15 10 -10 17 7 22 44 6 44
-5 0 -10 -4 -10 -9z"/>
<path d="M1573 2293 c9 -9 20 -13 24 -9 4 4 1 11 -7 16 -25 16 -35 11 -17 -7z"/>
<path d="M430 1843 c0 -6 8 -17 18 -24 16 -13 16 -13 2 6 -8 11 -16 22 -17 24
-2 2 -3 0 -3 -6z"/>
<path d="M2077 1823 c-4 -3 -7 -11 -7 -17 0 -6 5 -5 12 2 6 6 9 14 7 17 -3 3
-9 2 -12 -2z"/>
<path d="M1200 1595 c-7 -8 -20 -14 -28 -13 -11 2 -19 -9 -25 -37 -5 -22 -11
-47 -14 -55 -4 -8 -7 -17 -7 -20 -1 -3 -5 -11 -10 -19 -5 -8 2 -6 20 5 29 18
29 18 13 -1 -25 -31 -29 -52 -13 -65 8 -7 14 -9 14 -5 0 4 11 0 25 -9 14 -9
30 -14 35 -11 6 3 15 3 22 -1 8 -5 6 -10 -7 -14 -15 -5 -7 -11 34 -25 71 -23
144 -17 174 16 12 13 21 27 20 31 -2 4 5 4 14 1 11 -4 14 -3 9 5 -5 8 -1 10
10 5 15 -5 16 -1 11 31 -3 21 -12 45 -19 53 -17 21 -60 36 -67 25 -10 -16 -97
-19 -111 -4 -8 9 -25 12 -49 8 l-36 -5 45 22 c38 19 61 22 158 22 61 -1 112 3
112 7 0 4 -7 8 -16 8 -10 0 -14 6 -10 15 3 10 -1 15 -12 16 -9 0 -24 2 -32 5
-49 13 -74 15 -60 5 20 -14 15 -14 -50 4 -72 19 -134 19 -150 0z m0 -115 c-8
-5 -19 -10 -25 -10 -5 0 -3 5 5 10 8 5 20 10 25 10 6 0 3 -5 -5 -10z m194 -29
c29 -11 3 -23 -42 -20 -21 2 -43 -1 -50 -5 -18 -11 -42 0 -42 19 0 12 12 15
58 14 31 0 66 -4 76 -8z m-67 -70 c15 6 39 7 53 3 14 -4 28 -7 33 -6 11 3 8
-6 -10 -28 -20 -23 -45 -25 -108 -9 -45 11 -52 24 -31 57 6 11 11 9 22 -7 12
-17 19 -19 41 -10z"/>
<path d="M1298 1353 c7 -3 16 -2 19 1 4 3 -2 6 -13 5 -11 0 -14 -3 -6 -6z"/>
<path d="M767 1520 c-9 -3 -30 -18 -49 -35 l-33 -30 30 -6 c29 -5 29 -6 -14
-15 -31 -7 -46 -16 -52 -31 -7 -19 -4 -24 15 -29 29 -7 41 -45 25 -76 -10 -18
-9 -20 5 -15 13 5 15 2 10 -21 -6 -24 -5 -25 7 -9 12 15 22 16 74 8 l60 -9
-49 -1 c-27 0 -46 -4 -43 -8 4 -3 2 -12 -4 -20 -9 -10 -2 -13 38 -13 37 0 60
7 94 28 52 34 64 48 68 84 4 46 -26 95 -70 112 -22 9 -46 16 -54 16 -8 0 -15
5 -15 10 0 18 102 5 145 -19 6 -3 -3 6 -20 20 -16 15 -34 28 -40 29 -5 1 -22
11 -37 21 -25 18 -58 21 -91 9z m79 -116 c-4 -14 -2 -32 4 -39 9 -10 2 -15
-30 -20 -22 -4 -42 -11 -46 -16 -3 -5 -9 -7 -14 -4 -5 3 -13 -3 -19 -12 -5
-10 -12 -15 -16 -12 -3 4 6 21 20 38 23 26 24 32 11 37 -21 8 -12 21 27 38 53
23 70 20 63 -10z m41 -1 c-9 -9 -19 -14 -23 -11 -10 10 6 28 24 28 15 0 15 -1
-1 -17z m5 -114 c-35 -13 -91 -19 -97 -9 -5 9 32 16 90 18 28 1 29 0 7 -9z"/>
<path d="M1298 1503 c7 -3 16 -2 19 1 4 3 -2 6 -13 5 -11 0 -14 -3 -6 -6z"/>
<path d="M944 1397 c18 -37 22 -41 29 -23 5 13 1 26 -14 43 -33 35 -38 28 -15
-20z"/>
<path d="M510 1391 c0 -17 2 -31 4 -31 8 0 13 51 5 56 -5 3 -9 -9 -9 -25z"/>
<path d="M1522 1400 c0 -14 2 -19 5 -12 2 6 2 18 0 25 -3 6 -5 1 -5 -13z"/>
<path d="M548 1403 c15 -6 16 -35 0 -51 -9 -9 -9 -12 0 -12 14 0 27 44 17 59
-3 6 -12 11 -18 10 -9 0 -9 -2 1 -6z"/>
<path d="M603 1398 c-21 -27 -24 -70 -7 -95 9 -14 11 -22 5 -19 -17 11 -13 -9
10 -59 36 -76 43 -68 35 36 -10 142 -18 168 -43 137z"/>
<path d="M967 1324 c-4 -4 -7 -14 -7 -23 0 -11 3 -12 11 -4 6 6 10 16 7 23 -2
6 -7 8 -11 4z"/>
<path d="M530 1291 c0 -5 5 -13 10 -16 6 -3 10 -2 10 4 0 5 -4 13 -10 16 -5 3
-10 2 -10 -4z"/>
<path d="M587 1193 c3 -10 13 -27 22 -38 10 -13 11 -16 1 -7 -8 6 -18 12 -22
12 -10 0 -9 -65 1 -100 10 -36 36 -38 39 -3 1 15 7 30 12 31 18 6 10 43 -17
83 -29 41 -47 51 -36 22z"/>
<path d="M1183 1179 c49 -41 48 -59 -3 -59 -22 0 -40 5 -40 10 0 19 -22 10
-50 -20 -27 -29 -81 -43 -108 -26 -19 11 -52 -3 -52 -23 0 -10 12 -30 27 -45
19 -19 21 -25 8 -20 -15 6 -15 3 5 -24 13 -17 27 -29 32 -26 4 3 13 2 19 -2
15 -9 -119 -67 -138 -60 -9 4 -22 1 -29 -5 -19 -15 -18 -43 0 -36 8 3 17 -1
20 -9 3 -8 12 -14 21 -14 9 0 27 -7 40 -16 34 -22 57 -12 49 21 -4 15 -2 25 5
25 6 0 11 -5 11 -12 0 -6 6 -3 14 7 12 16 16 17 30 6 14 -11 16 -11 16 3 0 18
25 22 35 6 9 -15 25 -12 25 4 0 21 27 27 44 11 19 -20 23 -19 29 7 6 21 7 21
25 5 17 -16 20 -16 25 -2 4 8 14 15 22 15 12 0 15 -8 13 -27 -2 -21 -8 -28
-22 -26 -11 1 -26 -5 -33 -13 -8 -8 -19 -12 -24 -8 -6 3 -17 0 -25 -7 -10 -8
-45 -13 -90 -13 -72 -1 -91 -7 -58 -20 54 -21 161 3 300 66 33 15 74 54 74 71
0 8 7 18 16 21 8 3 12 2 9 -4 -3 -6 1 -10 9 -10 18 0 21 35 7 73 -5 13 -43 50
-84 83 -41 32 -73 62 -71 65 1 3 -21 13 -51 23 -30 9 -57 21 -60 26 -4 6 -11
10 -18 10 -6 0 5 -14 26 -31z m132 -96 c64 -57 64 -57 49 -86 -13 -24 -13 -31
-2 -44 12 -15 8 -16 -36 -10 -27 4 -76 7 -108 7 l-60 0 31 26 c29 24 37 46 45
119 5 44 6 45 12 45 3 0 34 -26 69 -57z m-190 -143 c-3 -5 -12 -10 -18 -10 -7
0 -6 4 3 10 19 12 23 12 15 0z m-38 -6 c-3 -3 -12 -4 -19 -1 -8 3 -5 6 6 6 11
1 17 -2 13 -5z"/>
<path d="M923 1154 c-14 -6 -57 -88 -67 -127 -4 -17 -11 -25 -18 -21 -6 4 -8
3 -5 -3 4 -6 0 -16 -8 -23 -8 -7 -15 -19 -15 -27 0 -8 -5 -11 -12 -7 -7 4 -4
-2 7 -13 15 -16 23 -18 34 -9 12 9 13 8 8 -6 -3 -10 -2 -18 3 -18 9 0 15 31
11 54 -1 4 12 32 28 62 17 29 28 60 25 68 -3 8 2 28 11 45 8 17 14 31 13 30
-2 0 -8 -3 -15 -5z"/>
<path d="M1749 1149 c-4 -25 -8 -40 -13 -56 -4 -11 -3 -31 2 -43 7 -19 10 -13
15 35 3 33 4 61 2 64 -3 2 -5 2 -6 0z"/>
<path d="M1798 1095 c-6 -14 -15 -25 -20 -25 -4 0 -8 -7 -8 -15 0 -9 -9 -33
-20 -55 -11 -22 -21 -64 -23 -97 -2 -42 -7 -57 -16 -55 -10 2 -12 -4 -7 -22 3
-14 1 -28 -6 -32 -7 -5 -8 -3 -3 6 5 9 4 11 -4 6 -6 -4 -9 -12 -5 -17 9 -16
-15 -37 -36 -32 -11 3 -26 -3 -36 -16 -10 -12 -24 -21 -31 -21 -7 0 -13 -7
-13 -15 0 -8 -4 -15 -10 -15 -5 0 -10 5 -10 10 0 6 -5 10 -11 10 -7 0 -9 -10
-5 -25 4 -15 2 -25 -4 -25 -6 0 -8 5 -5 10 3 6 3 10 0 10 -11 0 -35 -28 -35
-41 0 -7 -8 -5 -22 7 -12 10 -18 14 -14 7 4 -7 -8 -28 -29 -50 -19 -20 -35
-32 -35 -26 0 7 -12 1 -26 -12 -15 -14 -35 -25 -45 -25 -10 0 -21 -4 -24 -10
-3 -5 -15 -10 -26 -10 -10 0 -19 -4 -19 -10 0 -5 -7 -7 -15 -4 -9 4 -15 0 -15
-7 -1 -10 -5 -8 -14 4 -9 12 -15 14 -18 6 -2 -6 -16 -13 -31 -14 -16 -2 -35
-9 -44 -17 -9 -7 -14 -8 -10 -2 4 7 0 14 -7 17 -8 3 -16 2 -18 -4 -4 -12 -70
11 -81 29 -6 9 -12 10 -21 3 -9 -8 -22 -1 -47 25 -19 19 -33 38 -31 42 1 4 -2
7 -8 7 -5 0 -18 7 -27 15 -53 43 -45 42 -175 25 -145 -20 -207 -36 -250 -66
-44 -32 -87 -105 -94 -161 -4 -27 -11 -51 -15 -54 -25 -15 16 -155 59 -207 9
-9 13 -19 10 -22 -3 -3 -43 -16 -89 -29 -46 -13 -118 -39 -159 -59 l-75 -35
498 -1 c273 -1 497 1 497 3 0 3 -18 26 -40 51 -22 26 -47 60 -56 76 -14 27
-14 75 0 97 5 8 -5 124 -18 218 -3 21 -2 30 2 19 8 -22 101 -155 108 -155 3 0
3 4 0 9 -9 13 25 23 39 11 6 -5 15 -7 18 -3 4 3 7 1 7 -5 0 -7 12 -12 28 -12
15 0 34 -4 42 -10 9 -5 19 -5 26 1 7 5 16 9 20 8 19 -4 94 14 94 22 0 5 7 9
15 9 9 0 33 9 54 20 21 10 41 16 45 13 3 -4 6 -1 6 6 0 9 10 11 33 7 30 -6 33
-4 51 40 12 30 23 43 32 40 8 -3 13 0 11 6 -1 7 3 12 10 13 18 0 74 68 68 82
-2 8 2 16 10 19 21 9 19 25 -2 17 -12 -4 -9 3 9 21 26 25 29 56 4 56 -6 0 -1
8 10 18 29 23 43 73 46 155 2 71 8 80 29 45 11 -17 13 -48 8 -123 -3 -55 -6
-94 -7 -86 -3 24 -17 1 -19 -32 -18 -266 -18 -267 -114 -370 -21 -23 -39 -45
-39 -49 0 -17 -103 -108 -147 -130 -27 -13 -33 -14 -37 -2 -3 8 -13 14 -23 14
-15 0 -15 -2 3 -14 19 -14 19 -14 -1 -13 -30 3 -41 28 -20 43 16 12 10 13 -44
12 -34 -1 -65 2 -69 8 -12 16 -39 15 -46 -2 -5 -13 -9 -14 -21 -4 -9 7 -18 10
-21 7 -4 -3 11 -14 32 -24 22 -10 41 -21 44 -24 3 -4 20 -15 39 -26 40 -22 41
-38 2 -38 -23 0 -28 -4 -27 -22 l1 -23 668 0 668 0 -3 62 -3 61 -50 13 c-27 7
-95 21 -150 32 -55 12 -126 30 -157 42 l-57 21 31 47 c18 26 44 62 60 80 42
49 44 74 13 137 -27 57 -62 89 -109 101 -15 3 -34 18 -43 33 -57 91 -140 141
-253 150 l-75 6 0 53 c0 36 5 58 15 65 8 7 21 20 29 29 12 16 10 17 -25 15
l-39 -2 1 53 c2 43 6 56 27 73 15 11 24 26 20 34 -8 22 -22 18 -35 -10z m-11
-197 c-3 -8 -6 -5 -6 6 -1 11 2 17 5 13 3 -3 4 -12 1 -19z m-137 -281 c0 -2
-10 -12 -21 -23 -22 -19 -22 -19 -10 4 10 18 31 31 31 19z m-130 -217 c0 -5
-5 -10 -11 -10 -5 0 -7 5 -4 10 3 6 8 10 11 10 2 0 4 -4 4 -10z"/>
<path d="M1071 700 c16 -12 19 -19 10 -20 -8 0 -11 -3 -8 -7 4 -3 1 -13 -6
-21 -10 -13 -9 -15 5 -9 9 3 18 2 20 -3 5 -12 29 -15 65 -6 21 5 30 12 27 21
-4 10 0 13 15 10 22 -4 29 9 11 20 -5 3 -10 1 -10 -6 0 -8 -3 -9 -13 0 -8 6
-17 8 -21 4 -4 -4 -4 0 0 10 7 19 -3 22 -25 8 -10 -6 -25 -4 -42 5 -40 20 -55
17 -28 -6z"/>
<path d="M1060 180 c0 -5 5 -10 11 -10 5 0 7 5 4 10 -3 6 -8 10 -11 10 -2 0
-4 -4 -4 -10z"/>
<path d="M1182 178 c5 -15 28 -23 28 -10 0 5 -7 13 -16 16 -10 4 -14 1 -12 -6z"/>
</g>
</svg>
